- 
http://www.Speed.Cd
 
http://www.Speed.Cd       the fast  and The Hottest Private Tracker on the net

Please Seed back to make the speed Faster!!
 ............ NFO .............
-[IMG]http://i.imgur.com/6qFKtMq.jpg[/IMG]

Source: 720p FooKaS - Thanks
 
http://www.imdb.com/title/tt2292903/

Paul Harris works at a small research facility on the outskirts of Boston. After a weekend tryst with a co-worker leaves him wanting more, his unreciprocated desires gradually mold into an acute infatuation. When Danielle takes interest in a new scientist at the laboratory, Paul's suppressed resentments and perverse delusions finally become unhinged, triggering a horrific course of events that mercilessly engulf a tortured past and fugitive present.

General
Complete name                            : Rubberneck 2012 WEBRip x264 AAC-OFFLiNE.mp4
Format                                   : MPEG-4
Format profile                           : Base Media
Codec ID                                 : isom
File size                                : 1.40 GiB
Duration                                 : 1h 24mn
Overall bit rate mode                    : Variable
Overall bit rate                         : 2 386 Kbps
Encoded date                             : UTC 2013-03-06 13:45:18
Tagged date                              : UTC 2013-03-06 13:45:18

Video
ID                                       : 1
Format                                   : AVC
Format/Info                              : Advanced Video Codec
Format profile                           : High@L4.1
Format settings, CABAC                   : Yes
Format settings, ReFrames                : 3 frames
Codec ID                                 : avc1
Codec ID/Info                            : Advanced Video Coding
Duration                                 : 1h 24mn
Bit rate mode                            : Variable
Bit rate                                 : 2 276 Kbps
Maximum bit rate                         : 40.0 Mbps
Width                                    : 720 pixels
Height                                   : 400 pixels
Display aspect ratio                     : 16:9
Frame rate mode                          : Constant
Frame rate                               : 23.976 fps
Color space                              : YUV
Chroma subsampling                       : 4:2:0
Bit depth                                : 8 bits
Scan type                                : Progressive
Bits/(Pixel*Frame)                       : 0.330
Stream size                              : 1.34 GiB (95%)
Writing library                          : x264 core 130 r2273 b3065e6

Audio
ID                                       : 2
Format                                   : AAC
Format/Info                              : Advanced Audio Codec
Format profile                           : LC
Codec ID                                 : 40
Duration                                 : 1h 24mn
Bit rate mode                            : Variable
Bit rate                                 : 106 Kbps
Maximum bit rate                         : 161 Kbps
Channel(s)                               : 2 channels
Channel positions                        : Front: L R
Sampling rate                            : 48.0 KHz
Compression mode                         : Lossy
Stream size                              : 63.9 MiB (4%)
Language                                 : English
Encoded date                             : UTC 2013-03-06 11:08:51
Tagged date                              : UTC 2013-03-06 13:45:55

[IMG]http://i.imgur.com/zuuNWOb.png[/IMG]
[IMG]http://i.imgur.com/BFgOjw6.png[/IMG]
[IMG]http://i.imgur.com/kn9RhXk.png[/IMG]
[IMG]http://i.imgur.com/8plfwed.png[/IMG]

Greets: To Our Friends